<svg xmlns="http://www.w3.org/2000/svg" version="1.1" xmlns:xlink="http://www.w3.org/1999/xlink" xmlns:svgjs="http://svgjs.dev/svgjs" width="1000" height="623" viewBox="0 0 1000 623"><g transform="matrix(1,0,0,1,-0.6060606060606233,0.25222672064785456)"><svg viewBox="0 0 396 247" data-background-color="#ffffff" preserveAspectRatio="xMidYMid meet" height="623" width="1000" xmlns="http://www.w3.org/2000/svg" xmlns:xlink="http://www.w3.org/1999/xlink"><g id="tight-bounds" transform="matrix(1,0,0,1,0.2400000000000091,-0.09999999999999432)"><svg viewBox="0 0 395.52 247.2" height="247.2" width="395.52"><g><svg></svg></g><g><svg viewBox="0 0 395.52 247.2" height="247.2" width="395.52"><mask id="8027d833-8d20-4bd2-a67f-b8099f32563f"><rect width="395.52" height="247.2" fill="white"></rect><g transform="matrix(1,0,0,1,0,56.41911557077816)" id="clone"><svg viewBox="0 0 395.52 134.36176885844367" height="134.36176885844367" width="395.52"><g><svg viewBox="0 0 395.52 134.36176885844367" height="134.36176885844367" width="395.52"><g><svg viewBox="0 0 395.52 134.36176885844367" height="134.36176885844367" width="395.52"><g><svg viewBox="0 0 395.52 134.36176885844367" height="134.36176885844367" width="395.52"><g id="SvgjsG1233"><svg viewBox="0 0 395.52 134.36176885844367" height="134.36176885844367" width="395.52" id="SvgjsSvg1232"><g><svg viewBox="0 0 395.52 94.7908875453446" height="94.7908875453446" width="395.52"><g transform="matrix(1,0,0,1,0,0)"><svg width="395.52" viewBox="-13.199999809265137 -43.150001525878906 207.72000122070312 50.55000305175781" height="94.7908875453446" data-palette-color="#0063db"><path d="M21.5-31.35L21.75-31.15Q21.75-31.05 21.68-30.93 21.6-30.8 20.2-28.1L20.2-28.1Q18.65-25.2 12.05-12.95L12.05-12.95Q19.45-15.7 25.3-21.18 31.15-26.65 31.15-30.8L31.15-30.8Q31.15-33.05 28.95-34.5 26.75-35.95 22.3-35.95 17.85-35.95 12.73-34.08 7.6-32.2 3.7-29.6-0.2-27-2.83-24.25-5.45-21.5-5.45-19.75L-5.45-19.75Q-5.45-17.8-2.33-17.8 0.8-17.8 4.83-19.88 8.85-21.95 12.05-25.4L12.05-25.4Q12.6-26.05 12.75-26.05L12.75-26.05Q13.1-26.05 13.1-25.7L13.1-25.7Q13.1-25.6 12.75-25L12.75-25Q11.1-22.5 5.43-19.13-0.25-15.75-3.98-15.75-7.7-15.75-7.7-18.1L-7.7-18.1Q-7.7-20.2-4.73-23.53-1.75-26.85 2.7-30 7.15-33.15 13.05-35.4 18.95-37.65 23.93-37.65 28.9-37.65 31.25-36.08 33.6-34.5 33.6-32L33.6-32Q33.6-27.65 28.08-22.1 22.55-16.55 14.75-13.2L14.75-13.2Q19.8-13.15 23.15-8.83 26.5-4.5 26.55 1.2L26.55 1.2Q26.55 1.9 26.3 1.9L26.3 1.9Q25.9 1.9 25.75 1.03 25.6 0.15 25.4-0.7 25.2-1.55 24.18-3.7 23.15-5.85 21.78-7.5 20.4-9.15 17.8-10.5 15.2-11.85 11.95-11.85L11.95-11.85 11.4-11.85Q7.8-5.3 5.35-1L5.35-1Q5.05-0.35 4.25 0 3.45 0.35 3.03 0.35 2.6 0.35 2.6 0.1L2.6 0.1 8.75-11.1Q6.75-10.6 4.65-10.35L4.65-10.35Q3.75-10.35 3.75-10.65L3.75-10.65Q3.75-11.2 4.3-11.25L4.3-11.25Q6.6-11.4 9.3-12.1L9.3-12.1 19.35-30.4Q19.5-30.8 20.25-31.08 21-31.35 21.5-31.35L21.5-31.35ZM31-4.85L31-4.85Q28-4.85 28-6.15L28-6.15Q28-7.7 31.55-9.83 35.1-11.95 37.95-11.95L37.95-11.95Q39.4-11.95 39.4-11.05L39.4-11.05Q39.4-10.55 38.65-9.95 37.9-9.35 37.2-9 36.5-8.65 36.4-8.65L36.4-8.65Q36.1-8.65 36-8.9L36-8.9Q35.9-9.25 36.52-9.63 37.15-10 37.15-10.45 37.15-10.9 36.02-10.9 34.9-10.9 32.5-9.33 30.1-7.75 30.1-6.75L30.1-6.75Q30.1-6 31.85-6L31.85-6Q32.15-6 32.95-6.05 33.75-6.1 33.75-5.85 33.75-5.6 31.27-4.05 28.8-2.5 28.8-1.4L28.8-1.4Q28.8-0.15 30.42-0.15 32.05-0.15 34.1-1L34.1-1Q37.4-2.45 40.1-4.1L40.1-4.1 41.05-4.7Q41.1-4.6 41.1-4.3 41.1-4 40.65-3.8L40.65-3.8Q38-2 34.85-0.38 31.7 1.25 29.17 1.25 26.65 1.25 26.65-0.43 26.65-2.1 31-4.85ZM41.2-4.15L41.2-4.15 39.95-3.35Q39.75-3.25 39.57-3.25 39.4-3.25 39.4-3.45 39.4-3.65 39.55-3.8L39.55-3.8Q39.95-4 42.07-5.63 44.2-7.25 44.82-7.25 45.45-7.25 45.45-6.53 45.45-5.8 43.92-3.55 42.4-1.3 42.4-1.13 42.4-0.95 42.5-0.95L42.5-0.95Q42.95-0.95 47.7-4.9 52.45-8.85 52.85-8.85L52.85-8.85Q53.6-8.85 53.6-8.15L53.6-8.15Q53.6-7.7 51.87-5.08 50.15-2.45 49.6-1.5L49.6-1.5Q49.65-1.45 49.82-1.45 50-1.45 51.85-2.78 53.7-4.1 55.7-5.6 57.7-7.1 58.05-7.33 58.4-7.55 58.7-7.55L58.7-7.55Q59.3-7.5 59.3-6.85L59.3-6.85Q59.3-6.6 57.57-4.23 55.85-1.85 55.85-1.2L55.85-1.2Q55.85-0.75 56.92-0.75 58-0.75 60.1-1.73 62.2-2.7 63.8-3.7L63.8-3.7 65.4-4.7Q65.45-4.6 65.45-4.3 65.45-4 65-3.8L65-3.8Q58.25 0.8 55.6 0.8L55.6 0.8Q54.05 0.8 54.05-0.4L54.05-0.4Q54.05-1.55 54.72-2.6 55.4-3.65 55.9-4.38 56.4-5.1 56.4-5.15L56.4-5.15Q49.7-0.25 48.67 0.23 47.65 0.7 47.2 0.7 46.75 0.7 46.75-0.3L46.75-0.3 50.35-5.9Q49.75-5.65 46.45-3.15 43.15-0.65 41.3 1L41.3 1Q40.6 1.85 39.95 1.85L39.95 1.85Q39.3 1.7 39.3 1L39.3 1Q39.3 0.8 41.12-1.95 42.95-4.7 42.95-4.93 42.95-5.15 42.82-5.15 42.7-5.15 42.4-4.98 42.1-4.8 41.7-4.5 41.3-4.2 41.2-4.15ZM72.94-15.25L72.94-15.25Q73.69-15.25 73.69-14.5 73.69-13.75 72.99-12.98 72.29-12.2 71.44-12.2L71.44-12.2Q70.74-12.2 70.74-13.18 70.74-14.15 71.54-14.7 72.34-15.25 72.94-15.25ZM68.24-8.65L68.24-8.65Q68.49-9.05 68.94-9.05 69.39-9.05 69.84-8.6L69.84-8.6Q69.84-8.4 69.19-7.7 68.54-7 66.99-4.58 65.44-2.15 65.44-1.35L65.44-1.35Q65.44-0.85 66.19-0.75L66.19-0.75Q67.19-0.75 69.29-1.73 71.39-2.7 72.99-3.7L72.99-3.7 74.59-4.7Q74.64-4.6 74.64-4.3 74.64-4 74.19-3.8L74.19-3.8Q67.44 0.8 64.79 0.8L64.79 0.8Q63.49 0.8 63.49-0.5 63.49-1.8 64.92-4.13 66.34-6.45 68.24-8.65ZM73.14-3.8L73.14-3.8Q74.09-4.35 75.64-5.55L75.64-5.55Q79.44-8.55 79.69-8.55L79.69-8.55Q80.44-8.55 80.44-7.9 80.44-7.25 79.67-5.9 78.89-4.55 77.92-3.1 76.94-1.65 76.79-1.35L76.79-1.35Q76.84-1.3 77.02-1.3 77.19-1.3 78.99-2.63 80.79-3.95 82.74-5.43 84.69-6.9 85.04-7.13 85.39-7.35 85.69-7.35L85.69-7.35Q86.29-7.3 86.29-6.65L86.29-6.65Q86.29-6.4 84.59-4.13 82.89-1.85 82.89-1.2L82.89-1.2Q82.89-0.75 83.97-0.75 85.04-0.75 87.14-1.73 89.24-2.7 90.84-3.7L90.84-3.7 92.44-4.7Q92.49-4.6 92.49-4.3 92.49-4 92.04-3.8L92.04-3.8Q85.29 0.8 82.64 0.8L82.64 0.8Q81.09 0.8 81.09-0.4L81.09-0.4Q81.09-1.55 81.77-2.6 82.44-3.65 82.94-4.38 83.44-5.1 83.44-5.15L83.44-5.15Q81.14-3.5 77.99-1.2 74.84 1.1 74.44 1.1L74.44 1.1Q74.14 1.1 74.14 0.4 74.14-0.3 76.12-3.25 78.09-6.2 78.09-6.4 78.09-6.6 77.99-6.6L77.99-6.6 77.49-6.35 74.99-4.35Q74.74-4.15 74.04-3.7 73.34-3.25 73.17-3.25 72.99-3.25 72.99-3.48 72.99-3.7 73.14-3.8ZM99.69-4.7L99.69-4.7Q99.34-3.35 99.34-1.8 99.34-0.25 100.64-0.25L100.64-0.25Q100.99-0.25 101.81-0.63 102.64-1 102.76-1 102.89-1 102.89-0.9L102.89-0.9Q102.89-0.3 101.84 0.35 100.79 1 99.74 1L99.74 1Q97.64 1 97.64-1.8L97.64-1.8Q97.64-2.45 97.69-2.8L97.69-2.8Q93.69 0.7 91.56 0.7 89.44 0.7 89.44-0.75L89.44-0.75Q89.44-2.9 93.11-6.13 96.79-9.35 100.09-9.8L100.09-9.8Q102.94-15.65 107.11-20.75 111.29-25.85 113.54-25.85L113.54-25.85Q113.94-25.85 114.19-25.43 114.44-25 114.44-24.6L114.44-24.6Q114.44-22.95 109.56-16.3 104.69-9.65 99.69-4.7ZM112.59-23.85L112.59-23.85Q112.59-24.25 112.29-24.25L112.29-24.25Q111.44-24.25 109.06-21.45 106.69-18.65 104.09-14.33 101.49-10 100.24-6.4L100.24-6.4Q104.89-11.3 108.74-16.55 112.59-21.8 112.59-23.85ZM91.84-1.15L91.84-1.15Q91.84-0.4 92.69-0.4L92.69-0.4Q94.04-0.4 97.94-4.15L97.94-4.15Q98.59-6.45 99.49-8.4L99.49-8.4Q97.04-7.8 94.44-5.2 91.84-2.6 91.84-1.15ZM106.04-8.6L106.04-8.6 104.49-7.95Q104.39-7.95 104.39-8.1L104.39-8.1Q104.39-8.55 105.51-9.2 106.64-9.85 107.36-9.85 108.09-9.85 108.09-8.85L108.09-8.85Q108.09-7.15 106.99-2.95L106.99-2.95Q107.04-2.9 107.09-2.9L107.09-2.9Q111.44-6.45 112.89-7.9 114.34-9.35 114.86-9.35 115.39-9.35 115.39-8.8 115.39-8.25 114.24-4.93 113.09-1.6 113.09-1.15L113.09-1.15 113.84-1.8Q116.09-3.85 118.19-6.05L118.19-6.05Q117.09-6.2 117.09-7.3L117.09-7.3Q117.09-9.1 119.11-10.98 121.14-12.85 122.44-12.85L122.44-12.85Q123.09-12.85 123.09-12.2L123.09-12.2Q123.09-10.6 119.84-6.9L119.84-6.9 120.19-6.9Q121.24-6.9 123.99-8.8L123.99-8.8 124.89-9.45Q124.99-9.45 124.99-9.2 124.99-8.95 124.74-8.75L124.74-8.75Q121.64-6.25 119.04-6L119.04-6Q116.69-3.45 114.09-1.28 111.49 0.9 110.91 0.9 110.34 0.9 110.34 0.4L110.34 0.4Q110.34 0.2 110.54-0.23 110.74-0.65 111.59-3.35 112.44-6.05 112.41-6.18 112.39-6.3 112.34-6.3L112.34-6.3Q112.19-6.3 111.94-6.05L111.94-6.05 105.49-0.7Q104.44 0.3 103.99 0.3L103.99 0.3Q103.54 0.15 103.54-0.03 103.54-0.2 103.94-0.98 104.34-1.75 105.26-4.48 106.19-7.2 106.19-7.9 106.19-8.6 106.04-8.6ZM121.39-11.05L121.39-11.05Q121.39-11.35 120.89-11.35 120.39-11.35 119.39-10.28 118.39-9.2 118.39-7.9L118.39-7.9Q118.39-7.25 119.14-7.05L119.14-7.05Q121.39-9.75 121.39-11.05ZM131.03-5.95L131.03-5.95Q130.73-5.95 130.73-6.3L130.73-6.3 130.88-6.65Q131.78-7.5 131.78-8.1L131.78-8.1Q131.78-8.85 130.98-8.85L130.98-8.85Q129.23-8.85 126.26-6.43 123.28-4 123.28-2.1L123.28-2.1Q123.28-1.3 124.33-1.3 125.38-1.3 126.76-2.18 128.13-3.05 129.11-3.93 130.08-4.8 130.18-4.8L130.18-4.8Q130.68-4.75 130.68-4.3L130.68-4.3Q130.68-4.1 129.91-3 129.13-1.9 129.13-1.25L129.13-1.25Q129.13-0.75 129.96-0.75 130.78-0.75 132.88-1.73 134.98-2.7 136.58-3.7L136.58-3.7 138.18-4.7Q138.23-4.6 138.23-4.3 138.23-4 137.78-3.8L137.78-3.8Q131.03 0.8 128.38 0.8L128.38 0.8Q127.08 0.8 127.08-0.5L127.08-0.5Q127.08-1.05 127.28-1.65L127.28-1.65Q126.93-1.25 125.21-0.43 123.48 0.4 122.13 0.4 120.78 0.4 120.78-0.85L120.78-0.85Q120.78-3.8 124.88-6.88 128.98-9.95 131.78-9.95L131.78-9.95Q133.43-9.95 133.43-8.55L133.43-8.55Q133.43-7.75 132.43-6.85 131.43-5.95 131.03-5.95ZM138.08 0.8L138.08 0.8Q135.83 0.8 135.83-1.65L135.83-1.65Q135.83-4.9 139.36-10.98 142.88-17.05 147.41-21.88 151.93-26.7 154.53-26.7L154.53-26.7Q155.48-26.7 155.48-25.35L155.48-25.35Q155.48-23.25 151.96-18.5 148.43-13.75 144.38-9.6 140.33-5.45 138.13-3.9L138.13-3.9Q138.03-3.1 138.03-2.83 138.03-2.55 138.08-2.2 138.13-1.85 138.48-1.3 138.83-0.75 139.66-0.75 140.48-0.75 142.58-1.73 144.68-2.7 146.28-3.7L146.28-3.7 147.88-4.7Q147.93-4.6 147.93-4.3 147.93-4 147.48-3.8L147.48-3.8Q140.73 0.8 138.08 0.8ZM153.68-24.15L153.68-24.15Q153.63-25.25 153.03-25.25L153.03-25.25Q151.48-25.25 148.33-21.75 145.18-18.25 142.23-13.38 139.28-8.5 138.38-5L138.38-5Q140.48-6.7 143.78-10 147.08-13.3 150.28-17.55 153.48-21.8 153.68-24.15ZM147.73 0.8L147.73 0.8Q145.48 0.8 145.48-1.65L145.48-1.65Q145.48-4.9 149-10.98 152.53-17.05 157.05-21.88 161.58-26.7 164.18-26.7L164.18-26.7Q165.13-26.7 165.13-25.35L165.13-25.35Q165.13-23.25 161.6-18.5 158.08-13.75 154.03-9.6 149.98-5.45 147.78-3.9L147.78-3.9Q147.68-3.1 147.68-2.83 147.68-2.55 147.73-2.2 147.78-1.85 148.13-1.3 148.48-0.75 149.3-0.75 150.13-0.75 152.23-1.73 154.33-2.7 155.93-3.7L155.93-3.7 157.53-4.7Q157.58-4.6 157.58-4.3 157.58-4 157.13-3.8L157.13-3.8Q150.38 0.8 147.73 0.8ZM163.33-24.15L163.33-24.15Q163.28-25.25 162.68-25.25L162.68-25.25Q161.13-25.25 157.98-21.75 154.83-18.25 151.88-13.38 148.93-8.5 148.03-5L148.03-5Q150.13-6.7 153.43-10 156.73-13.3 159.93-17.55 163.13-21.8 163.33-24.15ZM158.83-4.85L158.83-4.85Q155.83-4.85 155.83-6.15L155.83-6.15Q155.83-7.7 159.38-9.83 162.93-11.95 165.78-11.95L165.78-11.95Q167.23-11.95 167.23-11.05L167.23-11.05Q167.23-10.55 166.48-9.95 165.73-9.35 165.03-9 164.33-8.65 164.23-8.65L164.23-8.65Q163.93-8.65 163.83-8.9L163.83-8.9Q163.73-9.25 164.35-9.63 164.98-10 164.98-10.45 164.98-10.9 163.85-10.9 162.73-10.9 160.33-9.33 157.93-7.75 157.93-6.75L157.93-6.75Q157.93-6 159.68-6L159.68-6Q159.98-6 160.78-6.05 161.58-6.1 161.58-5.85 161.58-5.6 159.1-4.05 156.63-2.5 156.63-1.4L156.63-1.4Q156.63-0.15 158.25-0.15 159.88-0.15 161.93-1L161.93-1Q165.23-2.45 167.93-4.1L167.93-4.1 168.88-4.7Q168.93-4.6 168.93-4.3 168.93-4 168.48-3.8L168.48-3.8Q165.83-2 162.68-0.38 159.53 1.25 157 1.25 154.48 1.25 154.48-0.43 154.48-2.1 158.83-4.85ZM168.52-16.5L168.52-16.5Q171.92-16.5 175.22-16.55L175.22-16.55Q180.57-23.4 182.52-23.4L182.52-23.4Q183.22-23.4 183.22-22.65L183.22-22.65Q183.22-20.25 179.72-16.65L179.72-16.65 183.52-16.7Q187.32-16.85 188.17-16.85 189.02-16.85 189.02-16.65L189.02-16.65Q189.02-15.7 187.72-15.65L187.72-15.65 178.32-15.25Q175.87-12.95 172.27-10.4L172.27-10.4Q168.47-4.15 168.47-1.9L168.47-1.9Q168.47-0.75 169.95-0.75 171.42-0.75 174.62-2.35L174.62-2.35 178.67-4.7Q178.72-4.6 178.72-4.3 178.72-4 178.27-3.8L178.27-3.8Q176.67-2.7 174.77-1.6L174.77-1.6Q170.72 0.45 168.57 0.45L168.57 0.45Q167.57 0.45 167.02 0.05 166.47-0.35 166.42-0.75L166.42-0.75 166.32-1.15Q166.32-2.85 168.62-6.88 170.92-10.9 174.07-15.1L174.07-15.1Q171.67-15 169.52-15 167.37-15 167.37-15.5L167.37-15.5Q167.37-16.45 168.52-16.5ZM181.67-21.6L181.67-21.6Q181.67-21.85 181.47-21.85L181.47-21.85Q180.32-21.85 176.37-16.6L176.37-16.6 178.87-16.6Q181.67-19.65 181.67-21.6ZM177.47-15.2L177.47-15.2Q175.87-15.2 175.32-15.15L175.32-15.15Q174.87-14.5 174.07-13.25 173.27-12 172.97-11.55L172.97-11.55Q175.57-13.45 177.47-15.2Z" opacity="1" transform="matrix(1,0,0,1,0,0)" fill="black" class="wordmark-text-0" id="SvgjsPath1231" stroke-width="10" stroke="black" stroke-linejoin="round"></path></svg></g></svg></g><g transform="matrix(1,0,0,1,101.38,105.83157572906407)"><svg viewBox="0 0 192.76 28.530193129379587" height="28.530193129379587" width="192.76"><g transform="matrix(1,0,0,1,0,0)"><svg width="192.76" viewBox="-1.130000114440918 -36.8799991607666 337.2300109863281 50.77000045776367" height="28.530193129379587" data-palette-color="#0063db"><path d="M23.22 0L6.32 0Q5.63 0 5.17-0.46L5.17-0.46Q4.37-1.15 4.37-1.9L4.37-1.9 4.37-29.43Q4.37-30.52 5.52-31.15L5.52-31.15Q5.86-31.26 6.21-31.38L6.21-31.38 22.59-31.38Q23.45-31.38 23.85-30.86 24.25-30.34 24.25-29.74 24.25-29.14 23.79-28.62 23.33-28.1 22.59-28.1L22.59-28.1 8.16-28.1 8.16-17.7 21.9-17.7Q22.76-17.7 23.16-17.21 23.56-16.72 23.56-16.09L23.56-16.09Q23.56-15.52 23.1-15.06 22.64-14.6 21.9-14.6L21.9-14.6 8.16-14.6 8.16-3.22 23.22-3.22Q24.02-3.22 24.43-2.7 24.83-2.18 24.83-1.55 24.83-0.92 24.4-0.46 23.97 0 23.22 0L23.22 0ZM29.65-2.41L36.61-11.21 30.23-19.08Q29.88-19.43 29.94-19.94 30-20.46 30.11-20.75 30.23-21.03 30.46-21.26L30.46-21.26Q31.09-21.84 31.81-21.84 32.53-21.84 33.22-21.03L33.22-21.03 39.02-13.33 44.94-21.15Q45.4-21.84 46.09-21.84 46.78-21.84 47.3-21.35 47.81-20.86 47.81-20.34 47.81-19.83 47.47-19.48L47.47-19.48 41.09-11.21 47.93-2.64Q48.27-2.24 48.27-1.81 48.27-1.38 48.13-1.03 47.99-0.69 47.7-0.52L47.7-0.52Q47.01 0 46.32 0 45.63 0 44.94-0.69L44.94-0.69 38.62-9.08 32.18-0.57Q31.78 0 31.26 0L31.26 0Q30.4 0 29.88-0.46 29.37-0.92 29.37-1.44 29.37-1.95 29.65-2.41L29.65-2.41ZM56.6-18.1L56.6-18.1Q58.85-22.24 64.42-22.24L64.42-22.24Q69.02-22.24 71.43-18.74L71.43-18.74Q73.62-15.52 73.62-10.8L73.62-10.8Q73.62-5.98 71.32-2.93L71.32-2.93Q68.85 0.52 64.36 0.46L64.36 0.46Q60.57 0.46 58.16-1.84L58.16-1.84Q57.29-2.59 56.6-3.62L56.6-3.62 56.6 6.72Q56.6 7.59 56.03 7.99 55.45 8.39 54.88 8.39L54.88 8.39Q54.19 8.39 53.62 7.93 53.04 7.47 53.04 6.72L53.04 6.72 53.04-20.17Q53.04-21.03 53.56-21.44 54.08-21.84 55.05-21.84L55.05-21.84Q56.95-21.84 56.6-18.1ZM58.01-17.01Q57.18-15.86 56.89-14.25 56.6-12.64 56.6-10.89 56.6-9.14 57.01-7.61 57.41-6.09 58.21-4.83L58.21-4.83Q60.05-2.18 63.5-2.24L63.5-2.24Q66.83-2.24 68.56-5L68.56-5Q69.88-7.24 69.88-10.92L69.88-10.92Q69.88-16.72 66.6-18.74L66.6-18.74Q65.4-19.48 63.47-19.51 61.55-19.54 60.2-18.85 58.85-18.16 58.01-17.01ZM98.33-11.55L98.33-11.55Q98.33-10.34 96.95-10.23L96.95-10.23 81.2-10.23Q81.43-4.37 85.8-2.64L85.8-2.64Q87-2.24 88.56-2.24L88.56-2.24Q91.77-2.24 95.11-4.6L95.11-4.6Q96.14-5.17 96.83-4.48L96.83-4.48Q97.18-4.14 97.06-3.79L97.06-3.79Q97.06-2.99 96.66-2.64L96.66-2.64Q93.5 0.52 88.33 0.46L88.33 0.46Q83.61 0.46 80.74-2.59L80.74-2.59Q77.52-5.75 77.52-10.92L77.52-10.92Q77.52-15.69 80.16-18.79L80.16-18.79Q82.92-22.24 87.98-22.24L87.98-22.24Q93.04-22.24 95.68-19.2L95.68-19.2Q98.21-16.44 98.33-11.55ZM81.31-12.59L94.94-12.59Q94.76-15.69 92.92-17.7L92.92-17.7Q91.2-19.54 87.98-19.54L87.98-19.54Q85.22-19.54 83.27-17.47L83.27-17.47Q81.49-15.4 81.31-12.59L81.31-12.59ZM103.73-1.61L103.73-20.17Q103.73-20.92 104.3-21.38 104.88-21.84 105.45-21.84L105.45-21.84Q106.66-21.84 107-20.92 107.35-20 107.17-18.16L107.17-18.16Q107.86-19.89 110.16-21.15L110.16-21.15Q112.17-22.24 114.16-22.24 116.14-22.24 117.52-21.75 118.9-21.26 120.05-20.23L120.05-20.23Q122.35-18.05 122.35-13.79L122.35-13.79 122.35-1.61Q122.35-0.8 121.74-0.4 121.14 0 120.51 0L120.51 0Q119.82 0 119.3-0.43 118.78-0.86 118.78-1.61L118.78-1.61 118.78-14.02Q118.78-16.72 117.29-18.16L117.29-18.16Q115.91-19.54 113.84-19.54L113.84-19.54Q111.08-19.54 109.13-17.93L109.13-17.93Q107.17-16.21 107.17-12.64L107.17-12.64 107.17-1.61Q107.17-0.8 106.6-0.4 106.02 0 105.33 0L105.33 0Q104.65 0 104.19-0.43 103.73-0.86 103.73-1.61L103.73-1.61ZM136.83-19.54L136.83-19.54Q131.83-19.54 131.94-16.38L131.94-16.38Q131.94-14.37 134.82-13.62L134.82-13.62Q135.79-13.33 136.91-13.1 138.03-12.87 139.36-12.56 140.68-12.24 142.06-11.72L142.06-11.72Q144.01-11.15 145.07-9.8 146.14-8.45 146.14-6.55L146.14-6.55Q146.14-3.1 143.21-1.21L143.21-1.21Q140.56 0.52 136.54 0.46L136.54 0.46Q133.55 0.46 130.68-0.57L130.68-0.57Q129.53-1.03 128.84-1.67 128.15-2.3 128.15-2.87 128.15-3.45 128.52-3.79 128.9-4.14 129.41-4.14 129.93-4.14 130.59-3.85 131.25-3.56 132.29-3.22L132.29-3.22Q134.93-2.24 136.54-2.24 138.15-2.24 139.13-2.44 140.1-2.64 140.91-3.1L140.91-3.1Q142.63-4.25 142.63-6.09L142.63-6.09Q142.63-7.41 141.8-8.13 140.96-8.85 139.67-9.25 138.38-9.66 137.11-9.94 135.85-10.23 134.59-10.52 133.32-10.8 132.17-11.21 131.02-11.61 130.22-12.3L130.22-12.3Q128.26-13.68 128.26-16.21L128.26-16.21Q128.26-19.43 130.96-20.86L130.96-20.86Q133.21-22.24 136.88-22.24L136.88-22.24Q140.62-22.24 142.86-21.15L142.86-21.15Q144.76-20.17 144.76-18.97L144.76-18.97Q144.76-18.51 144.38-18.22 144.01-17.93 143.55-17.93L143.55-17.93Q142.69-17.93 142.26-18.22 141.83-18.51 141.31-18.79 140.79-19.08 140.1-19.2L140.1-19.2Q138.84-19.54 136.83-19.54ZM170.96-11.55L170.96-11.55Q170.96-10.34 169.58-10.23L169.58-10.23 153.84-10.23Q154.07-4.37 158.43-2.64L158.43-2.64Q159.64-2.24 161.19-2.24L161.19-2.24Q164.41-2.24 167.74-4.6L167.74-4.6Q168.78-5.17 169.47-4.48L169.47-4.48Q169.81-4.14 169.7-3.79L169.7-3.79Q169.7-2.99 169.3-2.64L169.3-2.64Q166.13 0.52 160.96 0.46L160.96 0.46Q156.25 0.46 153.38-2.59L153.38-2.59Q150.16-5.75 150.16-10.92L150.16-10.92Q150.16-15.69 152.8-18.79L152.8-18.79Q155.56-22.24 160.62-22.24L160.62-22.24Q165.67-22.24 168.32-19.2L168.32-19.2Q170.85-16.44 170.96-11.55ZM153.95-12.59L167.57-12.59Q167.4-15.69 165.56-17.7L165.56-17.7Q163.84-19.54 160.62-19.54L160.62-19.54Q157.86-19.54 155.9-17.47L155.9-17.47Q154.12-15.4 153.95-12.59L153.95-12.59ZM195.27-28.1L186.7-28.1Q185.84-28.1 185.44-28.62 185.04-29.14 185.04-29.74 185.04-30.34 185.44-30.86 185.84-31.38 186.7-31.38L186.7-31.38 207.68-31.38Q208.49-31.38 208.89-30.86 209.29-30.34 209.29-29.74 209.29-29.14 208.86-28.62 208.43-28.1 207.68-28.1L207.68-28.1 199.18-28.1 199.18-1.9Q199.18-0.57 198.03-0.11L198.03-0.11Q197.68 0 197.11 0 196.53 0 195.9-0.46 195.27-0.92 195.27-1.9L195.27-1.9 195.27-28.1ZM216.7-20.11L216.7-18.16Q218.08-22.24 222.74-22.24L222.74-22.24Q223.6-22.24 224.03-21.75 224.46-21.26 224.46-20.72 224.46-20.17 224.03-19.68 223.6-19.2 222.45-19.2 221.3-19.2 220.15-18.74 219-18.28 218.25-17.41L218.25-17.41Q216.7-15.52 216.7-12.41L216.7-12.41 216.7-1.61Q216.7-0.8 216.13-0.4 215.55 0 215.09 0 214.63 0 214.35-0.09 214.06-0.17 213.77-0.46L213.77-0.46Q213.25-0.8 213.25-1.61L213.25-1.61 213.25-20.11Q213.25-20.86 213.77-21.35 214.29-21.84 215.06-21.84 215.84-21.84 216.27-21.35 216.7-20.86 216.7-20.11L216.7-20.11ZM239.11-13.28L239.11-13.28Q240.32-13.28 241.53-13.22L241.53-13.22 241.53-15.06Q241.53-19.54 236.53-19.54L236.53-19.54Q234.29-19.54 233.25-19.14L233.25-19.14Q231.41-18.45 230.61-17.96 229.8-17.47 229.34-17.47 228.88-17.47 228.48-17.82 228.08-18.16 228.08-18.74L228.08-18.74Q228.08-19.2 228.6-19.66L228.6-19.66Q231.3-22.24 236.58-22.24L236.58-22.24Q242.68-22.24 244.4-18.16L244.4-18.16Q244.97-16.72 244.97-14.83L244.97-14.83 244.86-1.55Q244.86-0.8 244.34-0.4 243.83 0 243.19 0 242.56 0 242.04-0.34 241.53-0.69 241.53-1.49L241.53-1.49 241.53-3.56Q240.15-0.57 236.58 0.17L236.58 0.17Q235.49 0.46 234.11 0.46 232.73 0.46 231.38 0.06 230.03-0.34 229-1.21L229-1.21Q226.87-2.99 226.87-6.03L226.87-6.03Q226.87-13.28 239.11-13.28ZM241.53-8.74L241.53-10.69Q240.61-10.57 239.4-10.57 238.19-10.57 236.93-10.55 235.66-10.52 234.52-10.26 233.37-10 232.45-9.48L232.45-9.48Q230.49-8.45 230.38-6.09L230.38-6.09Q230.38-4.25 231.87-3.22L231.87-3.22Q233.02-2.3 235.15-2.24L235.15-2.24Q237.73-2.24 239.63-3.91L239.63-3.91Q241.35-5.52 241.53-8.74L241.53-8.74ZM250.09-10.92L250.09-10.92Q250.09-15.69 252.79-18.85L252.79-18.85Q255.72-22.24 260.43-22.24L260.43-22.24Q264.46-22.24 266.58-20.57L266.58-20.57Q267.21-20.11 267.21-19.48 267.21-18.85 266.87-18.48 266.52-18.1 266.06-18.1 265.6-18.1 265.37-18.28L265.37-18.28Q263.19-19.54 260.78-19.48L260.78-19.48Q257.62-19.48 255.83-17.13L255.83-17.13Q253.82-14.71 253.82-10.92L253.82-10.92Q253.82-7.41 255.26-5L255.26-5Q256.98-2.24 260.78-2.24L260.78-2.24Q262.85-2.24 265.83-3.68L265.83-3.68Q266.64-4.14 267.21-3.45L267.21-3.45Q267.56-3.1 267.56-2.5 267.56-1.9 266.81-1.29 266.06-0.69 265.03-0.34L265.03-0.34Q262.5 0.52 260.14 0.49 257.79 0.46 255.89-0.4 254-1.26 252.73-2.93L252.73-2.93Q250.09-6.09 250.09-10.92ZM287.33-0.57L276.52-11.72 276.52-1.72Q276.52-0.86 275.98-0.43 275.43 0 274.77 0 274.11 0 273.59-0.43 273.07-0.86 273.07-1.72L273.07-1.72 273.07-29.54Q273.07-30.46 273.59-30.86 274.11-31.26 274.63-31.26 275.14-31.26 275.46-31.21 275.77-31.15 276.06-30.86L276.06-30.86Q276.52-30.46 276.52-29.54L276.52-29.54 276.52-12.93 286.46-21.26Q286.98-21.84 287.56-21.84L287.56-21.84Q288.19-21.84 288.68-21.38 289.17-20.92 289.17-20.52L289.17-20.52Q289.17-19.77 288.71-19.43L288.71-19.43 280.2-12.3 289.86-2.53Q290.2-2.18 290.2-1.7 290.2-1.21 290.06-0.95 289.91-0.69 289.63-0.46L289.63-0.46Q289.05 0 288.48 0 287.9 0 287.33-0.57L287.33-0.57ZM313.99-11.55L313.99-11.55Q313.99-10.34 312.61-10.23L312.61-10.23 296.86-10.23Q297.09-4.37 301.46-2.64L301.46-2.64Q302.67-2.24 304.22-2.24L304.22-2.24Q307.44-2.24 310.77-4.6L310.77-4.6Q311.81-5.17 312.5-4.48L312.5-4.48Q312.84-4.14 312.73-3.79L312.73-3.79Q312.73-2.99 312.32-2.64L312.32-2.64Q309.16 0.52 303.99 0.46L303.99 0.46Q299.28 0.46 296.4-2.59L296.4-2.59Q293.19-5.75 293.19-10.92L293.19-10.92Q293.19-15.69 295.83-18.79L295.83-18.79Q298.59-22.24 303.65-22.24L303.65-22.24Q308.7-22.24 311.35-19.2L311.35-19.2Q313.88-16.44 313.99-11.55ZM296.98-12.59L310.6-12.59Q310.43-15.69 308.59-17.7L308.59-17.7Q306.86-19.54 303.65-19.54L303.65-19.54Q300.89-19.54 298.93-17.47L298.93-17.47Q297.15-15.4 296.98-12.59L296.98-12.59ZM322.84-20.11L322.84-18.16Q324.22-22.24 328.87-22.24L328.87-22.24Q329.74-22.24 330.17-21.75 330.6-21.26 330.6-20.72 330.6-20.17 330.17-19.68 329.74-19.2 328.59-19.2 327.44-19.2 326.29-18.74 325.14-18.28 324.39-17.41L324.39-17.41Q322.84-15.52 322.84-12.41L322.84-12.41 322.84-1.61Q322.84-0.8 322.26-0.4 321.69 0 321.23 0 320.77 0 320.48-0.09 320.19-0.17 319.91-0.46L319.91-0.46Q319.39-0.8 319.39-1.61L319.39-1.61 319.39-20.11Q319.39-20.86 319.91-21.35 320.42-21.84 321.2-21.84 321.98-21.84 322.41-21.35 322.84-20.86 322.84-20.11L322.84-20.11Z" opacity="1" transform="matrix(1,0,0,1,0,0)" fill="black" class="slogan-text-1" id="SvgjsPath1230" stroke-width="10" stroke="black" stroke-linejoin="round"></path></svg></g></svg></g></svg></g></svg></g></svg></g></svg></g></svg></g></mask><g mask="url(#8027d833-8d20-4bd2-a67f-b8099f32563f)"><g><path xmlns="http://www.w3.org/2000/svg" d="M251.2 39.377l1.563 1.25c0 0.417-0.146 0.875-0.438 1.375-0.333 0.542-3.417 6.438-9.25 17.689v0c-6.459 12.084-23.439 43.648-50.94 94.692v0c30.835-11.459 58.44-28.606 82.816-51.44 24.376-22.793 36.564-42.836 36.565-60.128v0c0-9.375-4.584-17.084-13.751-23.127-9.167-6.042-23.022-9.063-41.565-9.062-18.543 0-38.481 3.896-59.815 11.688-21.376 7.834-40.19 17.168-56.44 28.001-16.251 10.834-29.856 21.98-40.815 33.439-10.917 11.459-16.376 20.834-16.376 28.127v0c0 8.125 6.5 12.188 19.501 12.188 13.042 0 27.96-4.334 44.752-13.001 16.751-8.625 31.793-20.126 45.128-34.502v0c2.292-2.708 3.75-4.063 4.375-4.062v0c1.458 0 2.188 0.729 2.188 2.187v0c0 0.417-0.729 1.875-2.188 4.375v0c-6.875 10.417-22.126 22.647-45.752 36.69-23.668 14.084-43.273 21.126-58.816 21.126-15.501 0-23.251-4.896-23.251-14.688v0c0-8.75 6.188-20.064 18.563-33.94 12.417-13.834 27.897-27.314 46.44-40.439 18.543-13.126 40.106-24.376 64.691-33.752 24.585-9.375 47.252-14.063 68.003-14.063 20.709 0 35.96 3.271 45.753 9.813 9.792 6.584 14.688 15.084 14.688 25.501v0c0 18.126-11.501 38.752-34.502 61.878-23.043 23.126-50.815 41.669-83.316 55.628v0c21.043 0.208 38.544 9.313 52.502 27.314 13.959 18.043 21.043 38.939 21.251 62.691v0c0 2.917-0.521 4.375-1.562 4.375v0c-1.667 0-2.813-1.813-3.438-5.438-0.625-3.667-1.354-7.271-2.188-10.813-0.833-3.542-3.375-9.792-7.625-18.751-4.292-8.959-9.292-16.876-15.001-23.751-5.75-6.875-14.042-13.126-24.876-18.751-10.834-5.625-23.022-8.438-36.564-8.438v0h-3.438c-15.001 27.293-27.606 49.898-37.814 67.816v0c-1.25 2.708-3.542 4.792-6.876 6.25-3.333 1.458-5.875 2.188-7.625 2.188-1.792 0-2.688-0.521-2.688-1.563v0l38.44-70.003c-8.334 2.083-16.876 3.646-25.627 4.688v0c-3.75 0-5.625-0.625-5.625-1.875v0c0-2.292 1.146-3.542 3.438-3.751v0c9.584-0.625 20.001-2.396 31.251-5.312v0l62.816-114.381c0.625-1.667 2.5-3.083 5.625-4.25 3.125-1.125 5.729-1.688 7.813-1.688z" fill="#0063db" fill-rule="nonzero" stroke="none" stroke-width="1" stroke-linecap="butt" stroke-linejoin="miter" stroke-miterlimit="10" stroke-dasharray="" stroke-dashoffset="0" font-family="none" font-weight="none" font-size="none" text-anchor="none" style="mix-blend-mode: normal" data-fill-palette-color="tertiary"></path></g></g><g transform="matrix(1,0,0,1,0,56.41911557077816)"><svg viewBox="0 0 395.52 134.36176885844367" height="134.36176885844367" width="395.52"><g><svg viewBox="0 0 395.52 134.36176885844367" height="134.36176885844367" width="395.52"><g><svg viewBox="0 0 395.52 134.36176885844367" height="134.36176885844367" width="395.52"><g><svg viewBox="0 0 395.52 134.36176885844367" height="134.36176885844367" width="395.52"><g id="textblocktransform"><svg viewBox="0 0 395.52 134.36176885844367" height="134.36176885844367" width="395.52" id="textblock"><g><svg viewBox="0 0 395.52 94.7908875453446" height="94.7908875453446" width="395.52"><g transform="matrix(1,0,0,1,0,0)"><svg width="395.52" viewBox="-13.199999809265137 -43.150001525878906 207.72000122070312 50.55000305175781" height="94.7908875453446" data-palette-color="#0063db"><path d="M21.5-31.35L21.75-31.15Q21.75-31.05 21.68-30.93 21.6-30.8 20.2-28.1L20.2-28.1Q18.65-25.2 12.05-12.95L12.05-12.95Q19.45-15.7 25.3-21.18 31.15-26.65 31.15-30.8L31.15-30.8Q31.15-33.05 28.95-34.5 26.75-35.95 22.3-35.95 17.85-35.95 12.73-34.08 7.6-32.2 3.7-29.6-0.2-27-2.83-24.25-5.45-21.5-5.45-19.75L-5.45-19.75Q-5.45-17.8-2.33-17.8 0.8-17.8 4.83-19.88 8.85-21.95 12.05-25.4L12.05-25.4Q12.6-26.05 12.75-26.05L12.75-26.05Q13.1-26.05 13.1-25.7L13.1-25.7Q13.1-25.6 12.75-25L12.75-25Q11.1-22.5 5.43-19.13-0.25-15.75-3.98-15.75-7.7-15.75-7.7-18.1L-7.7-18.1Q-7.7-20.2-4.73-23.53-1.75-26.85 2.7-30 7.15-33.15 13.05-35.4 18.95-37.65 23.93-37.65 28.9-37.65 31.25-36.08 33.6-34.5 33.6-32L33.6-32Q33.6-27.65 28.08-22.1 22.55-16.55 14.75-13.2L14.75-13.2Q19.8-13.15 23.15-8.83 26.5-4.5 26.55 1.2L26.55 1.2Q26.55 1.9 26.3 1.9L26.3 1.9Q25.9 1.9 25.75 1.03 25.6 0.15 25.4-0.7 25.2-1.55 24.18-3.7 23.15-5.85 21.78-7.5 20.4-9.15 17.8-10.5 15.2-11.85 11.95-11.85L11.95-11.85 11.4-11.85Q7.8-5.3 5.35-1L5.35-1Q5.05-0.35 4.25 0 3.45 0.35 3.03 0.35 2.6 0.35 2.6 0.1L2.6 0.1 8.75-11.1Q6.75-10.6 4.65-10.35L4.65-10.35Q3.75-10.35 3.75-10.65L3.75-10.65Q3.75-11.2 4.3-11.25L4.3-11.25Q6.6-11.4 9.3-12.1L9.3-12.1 19.35-30.4Q19.5-30.8 20.25-31.08 21-31.35 21.5-31.35L21.5-31.35ZM31-4.85L31-4.85Q28-4.85 28-6.15L28-6.15Q28-7.7 31.55-9.83 35.1-11.95 37.95-11.95L37.95-11.95Q39.4-11.95 39.4-11.05L39.4-11.05Q39.4-10.55 38.65-9.95 37.9-9.35 37.2-9 36.5-8.65 36.4-8.65L36.4-8.65Q36.1-8.65 36-8.9L36-8.9Q35.9-9.25 36.52-9.63 37.15-10 37.15-10.45 37.15-10.9 36.02-10.9 34.9-10.9 32.5-9.33 30.1-7.75 30.1-6.75L30.1-6.75Q30.1-6 31.85-6L31.85-6Q32.15-6 32.95-6.05 33.75-6.1 33.75-5.85 33.75-5.6 31.27-4.05 28.8-2.5 28.8-1.4L28.8-1.4Q28.8-0.15 30.42-0.15 32.05-0.15 34.1-1L34.1-1Q37.4-2.45 40.1-4.1L40.1-4.1 41.05-4.7Q41.1-4.6 41.1-4.3 41.1-4 40.65-3.8L40.65-3.8Q38-2 34.85-0.38 31.7 1.25 29.17 1.25 26.65 1.25 26.65-0.43 26.65-2.1 31-4.85ZM41.2-4.15L41.2-4.15 39.95-3.35Q39.75-3.25 39.57-3.25 39.4-3.25 39.4-3.45 39.4-3.65 39.55-3.8L39.55-3.8Q39.95-4 42.07-5.63 44.2-7.25 44.82-7.25 45.45-7.25 45.45-6.53 45.45-5.8 43.92-3.55 42.4-1.3 42.4-1.13 42.4-0.95 42.5-0.95L42.5-0.95Q42.95-0.95 47.7-4.9 52.45-8.85 52.85-8.85L52.85-8.85Q53.6-8.85 53.6-8.15L53.6-8.15Q53.6-7.7 51.87-5.08 50.15-2.45 49.6-1.5L49.6-1.5Q49.65-1.45 49.82-1.45 50-1.45 51.85-2.78 53.7-4.1 55.7-5.6 57.7-7.1 58.05-7.33 58.4-7.55 58.7-7.55L58.7-7.55Q59.3-7.5 59.3-6.85L59.3-6.85Q59.3-6.6 57.57-4.23 55.85-1.85 55.85-1.2L55.85-1.2Q55.85-0.75 56.92-0.75 58-0.75 60.1-1.73 62.2-2.7 63.8-3.7L63.8-3.7 65.4-4.7Q65.45-4.6 65.45-4.3 65.45-4 65-3.8L65-3.8Q58.25 0.8 55.6 0.8L55.6 0.8Q54.05 0.8 54.05-0.4L54.05-0.4Q54.05-1.55 54.72-2.6 55.4-3.65 55.9-4.38 56.4-5.1 56.4-5.15L56.4-5.15Q49.7-0.25 48.67 0.23 47.65 0.7 47.2 0.7 46.75 0.7 46.75-0.3L46.75-0.3 50.35-5.9Q49.75-5.65 46.45-3.15 43.15-0.65 41.3 1L41.3 1Q40.6 1.85 39.95 1.85L39.95 1.85Q39.3 1.7 39.3 1L39.3 1Q39.3 0.8 41.12-1.95 42.95-4.7 42.95-4.93 42.95-5.15 42.82-5.15 42.7-5.15 42.4-4.98 42.1-4.8 41.7-4.5 41.3-4.2 41.2-4.15ZM72.94-15.25L72.94-15.25Q73.69-15.25 73.69-14.5 73.69-13.75 72.99-12.98 72.29-12.2 71.44-12.2L71.44-12.2Q70.74-12.2 70.74-13.18 70.74-14.15 71.54-14.7 72.34-15.25 72.94-15.25ZM68.24-8.65L68.24-8.65Q68.49-9.05 68.94-9.05 69.39-9.05 69.84-8.6L69.84-8.6Q69.84-8.4 69.19-7.7 68.54-7 66.99-4.58 65.44-2.15 65.44-1.35L65.44-1.35Q65.44-0.85 66.19-0.75L66.19-0.75Q67.19-0.75 69.29-1.73 71.39-2.7 72.99-3.7L72.99-3.7 74.59-4.7Q74.64-4.6 74.64-4.3 74.64-4 74.19-3.8L74.19-3.8Q67.44 0.8 64.79 0.8L64.79 0.8Q63.49 0.8 63.49-0.5 63.49-1.8 64.92-4.13 66.34-6.45 68.24-8.65ZM73.14-3.8L73.14-3.8Q74.09-4.35 75.64-5.55L75.64-5.55Q79.44-8.55 79.69-8.55L79.69-8.55Q80.44-8.55 80.44-7.9 80.44-7.25 79.67-5.9 78.89-4.55 77.92-3.1 76.94-1.65 76.79-1.35L76.79-1.35Q76.84-1.3 77.02-1.3 77.19-1.3 78.99-2.63 80.79-3.95 82.74-5.43 84.69-6.9 85.04-7.13 85.39-7.35 85.69-7.35L85.69-7.35Q86.29-7.3 86.29-6.65L86.29-6.65Q86.29-6.4 84.59-4.13 82.89-1.85 82.89-1.2L82.89-1.2Q82.89-0.75 83.97-0.75 85.04-0.75 87.14-1.73 89.24-2.7 90.84-3.7L90.84-3.7 92.44-4.7Q92.49-4.6 92.49-4.3 92.49-4 92.04-3.8L92.04-3.8Q85.29 0.8 82.64 0.8L82.64 0.8Q81.09 0.8 81.09-0.4L81.09-0.4Q81.09-1.55 81.77-2.6 82.44-3.65 82.94-4.38 83.44-5.1 83.44-5.15L83.44-5.15Q81.14-3.5 77.99-1.2 74.84 1.1 74.44 1.1L74.44 1.1Q74.14 1.1 74.14 0.4 74.14-0.3 76.12-3.25 78.09-6.2 78.09-6.4 78.09-6.6 77.99-6.6L77.99-6.6 77.49-6.35 74.99-4.35Q74.74-4.15 74.04-3.7 73.34-3.25 73.17-3.25 72.99-3.25 72.99-3.48 72.99-3.7 73.14-3.8ZM99.69-4.7L99.69-4.7Q99.34-3.35 99.34-1.8 99.34-0.25 100.64-0.25L100.64-0.25Q100.99-0.25 101.81-0.63 102.64-1 102.76-1 102.89-1 102.89-0.9L102.89-0.9Q102.89-0.3 101.84 0.35 100.79 1 99.74 1L99.74 1Q97.64 1 97.64-1.8L97.64-1.8Q97.64-2.45 97.69-2.8L97.69-2.8Q93.69 0.7 91.56 0.7 89.44 0.7 89.44-0.75L89.44-0.75Q89.44-2.9 93.11-6.13 96.79-9.35 100.09-9.8L100.09-9.8Q102.94-15.65 107.11-20.75 111.29-25.85 113.54-25.85L113.54-25.85Q113.94-25.85 114.19-25.43 114.44-25 114.44-24.6L114.44-24.6Q114.44-22.95 109.56-16.3 104.69-9.65 99.69-4.7ZM112.59-23.85L112.59-23.85Q112.59-24.25 112.29-24.25L112.29-24.25Q111.44-24.25 109.06-21.45 106.69-18.65 104.09-14.33 101.49-10 100.24-6.4L100.24-6.4Q104.89-11.3 108.74-16.55 112.59-21.8 112.59-23.85ZM91.84-1.15L91.84-1.15Q91.84-0.4 92.69-0.4L92.69-0.4Q94.04-0.4 97.94-4.15L97.94-4.15Q98.59-6.45 99.49-8.4L99.49-8.4Q97.04-7.8 94.44-5.2 91.84-2.6 91.84-1.15ZM106.04-8.6L106.04-8.6 104.49-7.95Q104.39-7.95 104.39-8.1L104.39-8.1Q104.39-8.55 105.51-9.2 106.64-9.85 107.36-9.85 108.09-9.85 108.09-8.85L108.09-8.85Q108.09-7.15 106.99-2.95L106.99-2.95Q107.04-2.9 107.09-2.9L107.09-2.9Q111.44-6.45 112.89-7.9 114.34-9.35 114.86-9.35 115.39-9.35 115.39-8.8 115.39-8.25 114.24-4.93 113.09-1.6 113.09-1.15L113.09-1.15 113.84-1.8Q116.09-3.85 118.19-6.05L118.19-6.05Q117.09-6.2 117.09-7.3L117.09-7.3Q117.09-9.1 119.11-10.98 121.14-12.85 122.44-12.85L122.44-12.85Q123.09-12.85 123.09-12.2L123.09-12.2Q123.09-10.6 119.84-6.9L119.84-6.9 120.19-6.9Q121.24-6.9 123.99-8.8L123.99-8.8 124.89-9.45Q124.99-9.45 124.99-9.2 124.99-8.95 124.74-8.75L124.74-8.75Q121.64-6.25 119.04-6L119.04-6Q116.69-3.45 114.09-1.28 111.49 0.9 110.91 0.9 110.34 0.9 110.34 0.4L110.34 0.4Q110.34 0.2 110.54-0.23 110.74-0.65 111.59-3.35 112.44-6.05 112.41-6.18 112.39-6.3 112.34-6.3L112.34-6.3Q112.19-6.3 111.94-6.05L111.94-6.05 105.49-0.7Q104.44 0.3 103.99 0.3L103.99 0.3Q103.54 0.15 103.54-0.03 103.54-0.2 103.94-0.98 104.34-1.75 105.26-4.48 106.19-7.2 106.19-7.9 106.19-8.6 106.04-8.6ZM121.39-11.05L121.39-11.05Q121.39-11.35 120.89-11.35 120.39-11.35 119.39-10.28 118.39-9.2 118.39-7.9L118.39-7.9Q118.39-7.25 119.14-7.05L119.14-7.05Q121.39-9.75 121.39-11.05ZM131.03-5.95L131.03-5.95Q130.73-5.95 130.73-6.3L130.73-6.3 130.88-6.65Q131.78-7.5 131.78-8.1L131.78-8.1Q131.78-8.85 130.98-8.85L130.98-8.85Q129.23-8.85 126.26-6.43 123.28-4 123.28-2.1L123.28-2.1Q123.28-1.3 124.33-1.3 125.38-1.3 126.76-2.18 128.13-3.05 129.11-3.93 130.08-4.8 130.18-4.8L130.18-4.8Q130.68-4.75 130.68-4.3L130.68-4.3Q130.68-4.1 129.91-3 129.13-1.9 129.13-1.25L129.13-1.25Q129.13-0.75 129.96-0.75 130.78-0.75 132.88-1.73 134.98-2.7 136.58-3.7L136.58-3.7 138.18-4.7Q138.23-4.6 138.23-4.3 138.23-4 137.78-3.8L137.78-3.8Q131.03 0.8 128.38 0.8L128.38 0.8Q127.08 0.8 127.08-0.5L127.08-0.5Q127.08-1.05 127.28-1.65L127.28-1.65Q126.93-1.25 125.21-0.43 123.48 0.4 122.13 0.4 120.78 0.4 120.78-0.85L120.78-0.85Q120.78-3.8 124.88-6.88 128.98-9.95 131.78-9.95L131.78-9.95Q133.43-9.95 133.43-8.55L133.43-8.55Q133.43-7.75 132.43-6.85 131.43-5.95 131.03-5.95ZM138.08 0.8L138.08 0.8Q135.83 0.8 135.83-1.65L135.83-1.65Q135.83-4.9 139.36-10.98 142.88-17.05 147.41-21.88 151.93-26.7 154.53-26.7L154.53-26.7Q155.48-26.7 155.48-25.35L155.48-25.35Q155.48-23.25 151.96-18.5 148.43-13.75 144.38-9.6 140.33-5.45 138.13-3.9L138.13-3.9Q138.03-3.1 138.03-2.83 138.03-2.55 138.08-2.2 138.13-1.85 138.48-1.3 138.83-0.75 139.66-0.75 140.48-0.75 142.58-1.73 144.68-2.7 146.28-3.7L146.28-3.7 147.88-4.7Q147.93-4.6 147.93-4.3 147.93-4 147.48-3.8L147.48-3.8Q140.73 0.8 138.08 0.8ZM153.68-24.15L153.68-24.15Q153.63-25.25 153.03-25.25L153.03-25.25Q151.48-25.25 148.33-21.75 145.18-18.25 142.23-13.38 139.28-8.5 138.38-5L138.38-5Q140.48-6.7 143.78-10 147.08-13.3 150.28-17.55 153.48-21.8 153.68-24.15ZM147.73 0.8L147.73 0.8Q145.48 0.8 145.48-1.65L145.48-1.65Q145.48-4.9 149-10.98 152.53-17.05 157.05-21.88 161.58-26.7 164.18-26.7L164.18-26.7Q165.13-26.7 165.13-25.35L165.13-25.35Q165.13-23.25 161.6-18.5 158.08-13.75 154.03-9.6 149.98-5.45 147.78-3.9L147.78-3.9Q147.68-3.1 147.68-2.83 147.68-2.55 147.73-2.2 147.78-1.85 148.13-1.3 148.48-0.75 149.3-0.75 150.13-0.75 152.23-1.73 154.33-2.7 155.93-3.7L155.93-3.7 157.53-4.7Q157.58-4.6 157.58-4.3 157.58-4 157.13-3.8L157.13-3.8Q150.38 0.8 147.73 0.8ZM163.33-24.15L163.33-24.15Q163.28-25.25 162.68-25.25L162.68-25.25Q161.13-25.25 157.98-21.75 154.83-18.25 151.88-13.38 148.93-8.5 148.03-5L148.03-5Q150.13-6.7 153.43-10 156.73-13.3 159.93-17.55 163.13-21.8 163.33-24.15ZM158.83-4.85L158.83-4.85Q155.83-4.85 155.83-6.15L155.83-6.15Q155.83-7.7 159.38-9.83 162.93-11.95 165.78-11.95L165.78-11.95Q167.23-11.95 167.23-11.05L167.23-11.05Q167.23-10.55 166.48-9.95 165.73-9.35 165.03-9 164.33-8.65 164.23-8.65L164.23-8.65Q163.93-8.65 163.83-8.9L163.83-8.9Q163.73-9.25 164.35-9.63 164.98-10 164.98-10.45 164.98-10.9 163.85-10.9 162.73-10.9 160.33-9.33 157.93-7.75 157.93-6.75L157.93-6.75Q157.93-6 159.68-6L159.68-6Q159.98-6 160.78-6.05 161.58-6.1 161.58-5.85 161.58-5.6 159.1-4.05 156.63-2.5 156.63-1.4L156.63-1.4Q156.63-0.15 158.25-0.15 159.88-0.15 161.93-1L161.93-1Q165.23-2.45 167.93-4.1L167.93-4.1 168.88-4.7Q168.93-4.6 168.93-4.3 168.93-4 168.48-3.8L168.48-3.8Q165.83-2 162.68-0.38 159.53 1.25 157 1.25 154.48 1.25 154.48-0.43 154.48-2.1 158.83-4.85ZM168.52-16.5L168.52-16.5Q171.92-16.5 175.22-16.55L175.22-16.55Q180.57-23.4 182.52-23.4L182.52-23.4Q183.22-23.4 183.22-22.65L183.22-22.65Q183.22-20.25 179.72-16.65L179.72-16.65 183.52-16.7Q187.32-16.85 188.17-16.85 189.02-16.85 189.02-16.65L189.02-16.65Q189.02-15.7 187.72-15.65L187.72-15.65 178.32-15.25Q175.87-12.95 172.27-10.4L172.27-10.4Q168.47-4.15 168.47-1.9L168.47-1.9Q168.47-0.75 169.95-0.75 171.42-0.75 174.62-2.35L174.62-2.35 178.67-4.7Q178.72-4.6 178.72-4.3 178.72-4 178.27-3.8L178.27-3.8Q176.67-2.7 174.77-1.6L174.77-1.6Q170.72 0.45 168.57 0.45L168.57 0.45Q167.57 0.45 167.02 0.05 166.47-0.35 166.42-0.75L166.42-0.75 166.32-1.15Q166.32-2.85 168.62-6.88 170.92-10.9 174.07-15.1L174.07-15.1Q171.67-15 169.52-15 167.37-15 167.37-15.5L167.37-15.5Q167.37-16.45 168.52-16.5ZM181.67-21.6L181.67-21.6Q181.67-21.85 181.47-21.85L181.47-21.85Q180.32-21.85 176.37-16.6L176.37-16.6 178.87-16.6Q181.67-19.65 181.67-21.6ZM177.47-15.2L177.47-15.2Q175.87-15.2 175.32-15.15L175.32-15.15Q174.87-14.5 174.07-13.25 173.27-12 172.97-11.55L172.97-11.55Q175.57-13.45 177.47-15.2Z" opacity="1" transform="matrix(1,0,0,1,0,0)" fill="#0063db" class="wordmark-text-0" data-fill-palette-color="primary" id="text-0"></path></svg></g></svg></g><g transform="matrix(1,0,0,1,101.38,105.83157572906407)"><svg viewBox="0 0 192.76 28.530193129379587" height="28.530193129379587" width="192.76"><g transform="matrix(1,0,0,1,0,0)"><svg width="192.76" viewBox="-1.130000114440918 -36.8799991607666 337.2300109863281 50.77000045776367" height="28.530193129379587" data-palette-color="#0063db"><path d="M23.22 0L6.32 0Q5.63 0 5.17-0.46L5.17-0.46Q4.37-1.15 4.37-1.9L4.37-1.9 4.37-29.43Q4.37-30.52 5.52-31.15L5.52-31.15Q5.86-31.26 6.21-31.38L6.21-31.38 22.59-31.38Q23.45-31.38 23.85-30.86 24.25-30.34 24.25-29.74 24.25-29.14 23.79-28.62 23.33-28.1 22.59-28.1L22.59-28.1 8.16-28.1 8.16-17.7 21.9-17.7Q22.76-17.7 23.16-17.21 23.56-16.72 23.56-16.09L23.56-16.09Q23.56-15.52 23.1-15.06 22.64-14.6 21.9-14.6L21.9-14.6 8.16-14.6 8.16-3.22 23.22-3.22Q24.02-3.22 24.43-2.7 24.83-2.18 24.83-1.55 24.83-0.92 24.4-0.46 23.97 0 23.22 0L23.22 0ZM29.65-2.41L36.61-11.21 30.23-19.08Q29.88-19.43 29.94-19.94 30-20.46 30.11-20.75 30.23-21.03 30.46-21.26L30.46-21.26Q31.09-21.84 31.81-21.84 32.53-21.84 33.22-21.03L33.22-21.03 39.02-13.33 44.94-21.15Q45.4-21.84 46.09-21.84 46.78-21.84 47.3-21.35 47.81-20.86 47.81-20.34 47.81-19.83 47.47-19.48L47.47-19.48 41.09-11.21 47.93-2.64Q48.27-2.24 48.27-1.81 48.27-1.38 48.13-1.03 47.99-0.69 47.7-0.52L47.7-0.52Q47.01 0 46.32 0 45.63 0 44.94-0.69L44.94-0.69 38.62-9.08 32.18-0.57Q31.78 0 31.26 0L31.26 0Q30.4 0 29.88-0.46 29.37-0.92 29.37-1.44 29.37-1.95 29.65-2.41L29.65-2.41ZM56.6-18.1L56.6-18.1Q58.85-22.24 64.42-22.24L64.42-22.24Q69.02-22.24 71.43-18.74L71.43-18.74Q73.62-15.52 73.62-10.8L73.62-10.8Q73.62-5.98 71.32-2.93L71.32-2.93Q68.85 0.52 64.36 0.46L64.36 0.46Q60.57 0.46 58.16-1.84L58.16-1.84Q57.29-2.59 56.6-3.62L56.6-3.62 56.6 6.72Q56.6 7.59 56.03 7.99 55.45 8.39 54.88 8.39L54.88 8.39Q54.19 8.39 53.62 7.93 53.04 7.47 53.04 6.72L53.04 6.72 53.04-20.17Q53.04-21.03 53.56-21.44 54.08-21.84 55.05-21.84L55.05-21.84Q56.95-21.84 56.6-18.1ZM58.01-17.01Q57.18-15.86 56.89-14.25 56.6-12.64 56.6-10.89 56.6-9.14 57.01-7.61 57.41-6.09 58.21-4.83L58.21-4.83Q60.05-2.18 63.5-2.24L63.5-2.24Q66.83-2.24 68.56-5L68.56-5Q69.88-7.24 69.88-10.92L69.88-10.92Q69.88-16.72 66.6-18.74L66.6-18.74Q65.4-19.48 63.47-19.51 61.55-19.54 60.2-18.85 58.85-18.16 58.01-17.01ZM98.33-11.55L98.33-11.55Q98.33-10.34 96.95-10.23L96.95-10.23 81.2-10.23Q81.43-4.37 85.8-2.64L85.8-2.64Q87-2.24 88.56-2.24L88.56-2.24Q91.77-2.24 95.11-4.6L95.11-4.6Q96.14-5.17 96.83-4.48L96.83-4.48Q97.18-4.14 97.06-3.79L97.06-3.79Q97.06-2.99 96.66-2.64L96.66-2.64Q93.5 0.52 88.33 0.46L88.33 0.46Q83.61 0.46 80.74-2.59L80.74-2.59Q77.52-5.75 77.52-10.92L77.52-10.92Q77.52-15.69 80.16-18.79L80.16-18.79Q82.92-22.24 87.98-22.24L87.98-22.24Q93.04-22.24 95.68-19.2L95.68-19.2Q98.21-16.44 98.33-11.55ZM81.31-12.59L94.94-12.59Q94.76-15.69 92.92-17.7L92.92-17.7Q91.2-19.54 87.98-19.54L87.98-19.54Q85.22-19.54 83.27-17.47L83.27-17.47Q81.49-15.4 81.31-12.59L81.31-12.59ZM103.73-1.61L103.73-20.17Q103.73-20.92 104.3-21.38 104.88-21.84 105.45-21.84L105.45-21.84Q106.66-21.84 107-20.92 107.35-20 107.17-18.16L107.17-18.16Q107.86-19.89 110.16-21.15L110.16-21.15Q112.17-22.24 114.16-22.24 116.14-22.24 117.52-21.75 118.9-21.26 120.05-20.23L120.05-20.23Q122.35-18.05 122.35-13.79L122.35-13.79 122.35-1.61Q122.35-0.8 121.74-0.4 121.14 0 120.51 0L120.51 0Q119.82 0 119.3-0.43 118.78-0.86 118.78-1.61L118.78-1.61 118.78-14.02Q118.78-16.72 117.29-18.16L117.29-18.16Q115.91-19.54 113.84-19.54L113.84-19.54Q111.08-19.54 109.13-17.93L109.13-17.93Q107.17-16.21 107.17-12.64L107.17-12.64 107.17-1.61Q107.17-0.8 106.6-0.4 106.02 0 105.33 0L105.33 0Q104.65 0 104.19-0.43 103.73-0.86 103.73-1.61L103.73-1.61ZM136.83-19.54L136.83-19.54Q131.83-19.54 131.94-16.38L131.94-16.38Q131.94-14.37 134.82-13.62L134.82-13.62Q135.79-13.33 136.91-13.1 138.03-12.87 139.36-12.56 140.68-12.24 142.06-11.72L142.06-11.72Q144.01-11.15 145.07-9.8 146.14-8.45 146.14-6.55L146.14-6.55Q146.14-3.1 143.21-1.21L143.21-1.21Q140.56 0.52 136.54 0.46L136.54 0.46Q133.55 0.46 130.68-0.57L130.68-0.57Q129.53-1.03 128.84-1.67 128.15-2.3 128.15-2.87 128.15-3.45 128.52-3.79 128.9-4.14 129.41-4.14 129.93-4.14 130.59-3.85 131.25-3.56 132.29-3.22L132.29-3.22Q134.93-2.24 136.54-2.24 138.15-2.24 139.13-2.44 140.1-2.64 140.91-3.1L140.91-3.1Q142.63-4.25 142.63-6.09L142.63-6.09Q142.63-7.41 141.8-8.13 140.96-8.85 139.67-9.25 138.38-9.66 137.11-9.94 135.85-10.23 134.59-10.52 133.32-10.8 132.17-11.21 131.02-11.61 130.22-12.3L130.22-12.3Q128.26-13.68 128.26-16.21L128.26-16.21Q128.26-19.43 130.96-20.86L130.96-20.86Q133.21-22.24 136.88-22.24L136.88-22.24Q140.62-22.24 142.86-21.15L142.86-21.15Q144.76-20.17 144.76-18.97L144.76-18.97Q144.76-18.51 144.38-18.22 144.01-17.93 143.55-17.93L143.55-17.93Q142.69-17.93 142.26-18.22 141.83-18.51 141.31-18.79 140.79-19.08 140.1-19.2L140.1-19.2Q138.84-19.54 136.83-19.54ZM170.96-11.55L170.96-11.55Q170.96-10.34 169.58-10.23L169.58-10.23 153.84-10.23Q154.07-4.37 158.43-2.64L158.43-2.64Q159.64-2.24 161.19-2.24L161.19-2.24Q164.41-2.24 167.74-4.6L167.74-4.6Q168.78-5.17 169.47-4.48L169.47-4.48Q169.81-4.14 169.7-3.79L169.7-3.79Q169.7-2.99 169.3-2.64L169.3-2.64Q166.13 0.52 160.96 0.46L160.96 0.46Q156.25 0.46 153.38-2.59L153.38-2.59Q150.16-5.75 150.16-10.92L150.16-10.92Q150.16-15.69 152.8-18.79L152.8-18.79Q155.56-22.24 160.62-22.24L160.62-22.24Q165.67-22.24 168.32-19.2L168.32-19.2Q170.85-16.44 170.96-11.55ZM153.95-12.59L167.57-12.59Q167.4-15.69 165.56-17.7L165.56-17.7Q163.84-19.54 160.62-19.54L160.62-19.54Q157.86-19.54 155.9-17.47L155.9-17.47Q154.12-15.4 153.95-12.59L153.95-12.59ZM195.27-28.1L186.7-28.1Q185.84-28.1 185.44-28.62 185.04-29.14 185.04-29.74 185.04-30.34 185.44-30.86 185.84-31.38 186.7-31.38L186.7-31.38 207.68-31.38Q208.49-31.38 208.89-30.86 209.29-30.34 209.29-29.74 209.29-29.14 208.86-28.62 208.43-28.1 207.68-28.1L207.68-28.1 199.18-28.1 199.18-1.9Q199.18-0.57 198.03-0.11L198.03-0.11Q197.68 0 197.11 0 196.53 0 195.9-0.46 195.27-0.92 195.27-1.9L195.27-1.9 195.27-28.1ZM216.7-20.11L216.7-18.16Q218.08-22.24 222.74-22.24L222.74-22.24Q223.6-22.24 224.03-21.75 224.46-21.26 224.46-20.72 224.46-20.17 224.03-19.68 223.6-19.2 222.45-19.2 221.3-19.2 220.15-18.74 219-18.28 218.25-17.41L218.25-17.41Q216.7-15.52 216.7-12.41L216.7-12.41 216.7-1.61Q216.7-0.8 216.13-0.4 215.55 0 215.09 0 214.63 0 214.35-0.09 214.06-0.17 213.77-0.46L213.77-0.46Q213.25-0.8 213.25-1.61L213.25-1.61 213.25-20.11Q213.25-20.86 213.77-21.35 214.29-21.84 215.06-21.84 215.84-21.84 216.27-21.35 216.7-20.86 216.7-20.11L216.7-20.11ZM239.11-13.28L239.11-13.28Q240.32-13.28 241.53-13.22L241.53-13.22 241.53-15.06Q241.53-19.54 236.53-19.54L236.53-19.54Q234.29-19.54 233.25-19.14L233.25-19.14Q231.41-18.45 230.61-17.96 229.8-17.47 229.34-17.47 228.88-17.47 228.48-17.82 228.08-18.16 228.08-18.74L228.08-18.74Q228.08-19.2 228.6-19.66L228.6-19.66Q231.3-22.24 236.58-22.24L236.58-22.24Q242.68-22.24 244.4-18.16L244.4-18.16Q244.97-16.72 244.97-14.83L244.97-14.83 244.86-1.55Q244.86-0.8 244.34-0.4 243.83 0 243.19 0 242.56 0 242.04-0.34 241.53-0.69 241.53-1.49L241.53-1.49 241.53-3.56Q240.15-0.57 236.58 0.17L236.58 0.17Q235.49 0.46 234.11 0.46 232.73 0.46 231.38 0.06 230.03-0.34 229-1.21L229-1.21Q226.87-2.99 226.87-6.03L226.87-6.03Q226.87-13.28 239.11-13.28ZM241.53-8.74L241.53-10.69Q240.61-10.57 239.4-10.57 238.19-10.57 236.93-10.55 235.66-10.52 234.52-10.26 233.37-10 232.45-9.48L232.45-9.48Q230.49-8.45 230.38-6.09L230.38-6.09Q230.38-4.25 231.87-3.22L231.87-3.22Q233.02-2.3 235.15-2.24L235.15-2.24Q237.73-2.24 239.63-3.91L239.63-3.91Q241.35-5.52 241.53-8.74L241.53-8.74ZM250.09-10.92L250.09-10.92Q250.09-15.69 252.79-18.85L252.79-18.85Q255.72-22.24 260.43-22.24L260.43-22.24Q264.46-22.24 266.58-20.57L266.58-20.57Q267.21-20.11 267.21-19.48 267.21-18.85 266.87-18.48 266.52-18.1 266.06-18.1 265.6-18.1 265.37-18.28L265.37-18.28Q263.19-19.54 260.78-19.48L260.78-19.48Q257.62-19.48 255.83-17.13L255.83-17.13Q253.82-14.71 253.82-10.92L253.82-10.92Q253.82-7.41 255.26-5L255.26-5Q256.98-2.24 260.78-2.24L260.78-2.24Q262.85-2.24 265.83-3.68L265.83-3.68Q266.64-4.14 267.21-3.45L267.21-3.45Q267.56-3.1 267.56-2.5 267.56-1.9 266.81-1.29 266.06-0.69 265.03-0.34L265.03-0.34Q262.5 0.52 260.14 0.49 257.79 0.46 255.89-0.4 254-1.26 252.73-2.93L252.73-2.93Q250.09-6.09 250.09-10.92ZM287.33-0.57L276.52-11.72 276.52-1.72Q276.52-0.86 275.98-0.43 275.43 0 274.77 0 274.11 0 273.59-0.43 273.07-0.86 273.07-1.72L273.07-1.72 273.07-29.54Q273.07-30.46 273.59-30.86 274.11-31.26 274.63-31.26 275.14-31.26 275.46-31.21 275.77-31.15 276.06-30.86L276.06-30.86Q276.52-30.46 276.52-29.54L276.52-29.54 276.52-12.93 286.46-21.26Q286.98-21.84 287.56-21.84L287.56-21.84Q288.19-21.84 288.68-21.38 289.17-20.92 289.17-20.52L289.17-20.52Q289.17-19.77 288.71-19.43L288.71-19.43 280.2-12.3 289.86-2.53Q290.2-2.18 290.2-1.7 290.2-1.21 290.06-0.95 289.91-0.69 289.63-0.46L289.63-0.46Q289.05 0 288.48 0 287.9 0 287.33-0.57L287.33-0.57ZM313.99-11.55L313.99-11.55Q313.99-10.34 312.61-10.23L312.61-10.23 296.86-10.23Q297.09-4.37 301.46-2.64L301.46-2.64Q302.67-2.24 304.22-2.24L304.22-2.24Q307.44-2.24 310.77-4.6L310.77-4.6Q311.81-5.17 312.5-4.48L312.5-4.48Q312.84-4.14 312.73-3.79L312.73-3.79Q312.73-2.99 312.32-2.64L312.32-2.64Q309.16 0.52 303.99 0.46L303.99 0.46Q299.28 0.46 296.4-2.59L296.4-2.59Q293.19-5.75 293.19-10.92L293.19-10.92Q293.19-15.69 295.83-18.79L295.83-18.79Q298.59-22.24 303.65-22.24L303.65-22.24Q308.7-22.24 311.35-19.2L311.35-19.2Q313.88-16.44 313.99-11.55ZM296.98-12.59L310.6-12.59Q310.43-15.69 308.59-17.7L308.59-17.7Q306.86-19.54 303.65-19.54L303.65-19.54Q300.89-19.54 298.93-17.47L298.93-17.47Q297.15-15.4 296.98-12.59L296.98-12.59ZM322.84-20.11L322.84-18.16Q324.22-22.24 328.87-22.24L328.87-22.24Q329.74-22.24 330.17-21.75 330.6-21.26 330.6-20.72 330.6-20.17 330.17-19.68 329.74-19.2 328.59-19.2 327.44-19.2 326.29-18.74 325.14-18.28 324.39-17.41L324.39-17.41Q322.84-15.52 322.84-12.41L322.84-12.41 322.84-1.61Q322.84-0.8 322.26-0.4 321.69 0 321.23 0 320.77 0 320.48-0.09 320.19-0.17 319.91-0.46L319.91-0.46Q319.39-0.8 319.39-1.61L319.39-1.61 319.39-20.11Q319.39-20.86 319.91-21.35 320.42-21.84 321.2-21.84 321.98-21.84 322.41-21.35 322.84-20.86 322.84-20.11L322.84-20.11Z" opacity="1" transform="matrix(1,0,0,1,0,0)" fill="#0063db" class="slogan-text-1" data-fill-palette-color="secondary" id="text-1"></path></svg></g></svg></g></svg></g></svg></g></svg></g></svg></g></svg></g></svg></g><defs></defs></svg><rect width="395.52" height="247.2" fill="none" stroke="none" visibility="hidden"></rect></g></svg></g></svg>